<!-- Generator: Adobe Illustrator 24.3.0, SVG Export Plug-In  -->
<svg version="1.1" xmlns="http://www.w3.org/2000/svg" xmlns:xlink="http://www.w3.org/1999/xlink" x="0px" y="0px" width="133.4px"
	 height="19.69px" viewBox="0 0 133.4 19.69" style="overflow:visible;enable-background:new 0 0 133.4 19.69;"
	 xml:space="preserve">
<style type="text/css">
	.st0{fill:#FFFFFF;}
	.st1{fill:#009D85;}
</style>
<defs>
</defs>
<g>
	<path class="st0" d="M7.34,7.72C7.21,7.71,7.19,7.59,7.32,7.57C8.13,7.41,9.66,7,9.99,5.63c0.14-0.59,0.17-1.12-0.05-1.75
		c-0.4-1.1-1.83-2.02-3.68-2.06c0,0-5.52-0.04-5.7-0.04c-0.17,0-0.55,0.2-0.56,0.54c0,0,0,11.23,0,11.38c0,0.15,0.2,0.6,0.93,0.63
		c0.72,0.03,4.3,0.14,5.71,0.02c0,0,4.05-0.16,4.06-3.44C10.7,8.14,8.12,7.78,7.34,7.72 M2.99,6.88V3.65c0-0.29,0.42-0.44,0.66-0.5
		c0.23-0.06,1.35-0.06,1.8-0.02c0.45,0.04,1.99,0.1,2.12,1.79C7.7,6.62,6.53,7.01,6,7.21C5.47,7.4,3.95,7.4,3.44,7.33
		C2.93,7.26,2.99,6.99,2.99,6.88 M6.23,12.96c-0.53,0.06-2.51,0.07-2.86,0.05C3.01,12.99,3,12.67,3,12.67v-3.7
		C2.99,8.69,3.34,8.61,3.58,8.61c0.15,0,1.59-0.04,2.22-0.03c0.84,0.01,2.32,0.41,2.34,2.09C8.17,12.53,6.76,12.89,6.23,12.96"/>
	<path class="st0" d="M15.37,10.47c0,0,1.68,0.07,2.88,0c1.2-0.07,2.55-0.75,2.67-1.81c0.12-1.02,0.04-2.2-1.63-2.88
		c-1.03-0.42-2.74-0.82-4.74-0.13c-1.46,0.51-2.11,1.48-2.35,2.02c-0.36,0.8-0.59,2.26-0.34,3.67c0.2,1.17,0.84,2.04,1.7,2.58
		c1.91,1.18,4.61,0.66,5.32,0.49c0.71-0.17,1.6-0.45,1.7-0.5c0.1-0.05,0.27-0.15-0.04-0.51c-0.15-0.17-0.29-0.35-0.46-0.52
		c-0.19-0.19-0.23-0.29-0.96-0.01c0,0-2.77,0.99-3.96-0.09C13.97,11.7,14.2,10.47,15.37,10.47 M14.25,7.74
		c0.69-1.3,3.53-1.43,4.18-0.3c0.69,1.2-0.38,1.9-1.02,1.95c-0.64,0.05-1.74,0.16-2.58-0.06C13.97,9.12,14.04,8.14,14.25,7.74"/>
	<path class="st0" d="M22.01,1.99v12.12c0,0.11,0.11,0.38,0.47,0.4h1.6c0,0,0.43-0.04,0.43-0.36V1.55c0-0.08-0.07-0.38-0.49-0.31
		c-0.42,0.07-1.54,0.22-1.62,0.25C22.32,1.53,22.01,1.65,22.01,1.99"/>
	<path class="st0" d="M26.46,1.98V14.1c0,0.11,0.11,0.38,0.47,0.4h1.6c0,0,0.43-0.04,0.43-0.36V1.55c0-0.08-0.07-0.38-0.49-0.31
		c-0.42,0.07-1.54,0.22-1.62,0.25C26.78,1.52,26.46,1.64,26.46,1.98"/>
	<path class="st0" d="M30.33,5.6c-0.14,0-0.54,0.04-0.4,0.49c0.14,0.45,2.43,8.06,2.43,8.06s0.12,0.35,0.4,0.35h1.07
		c0,0,0.3,0.02,0.41-0.16c0.12-0.18,2.28-5.16,2.28-5.16s0.14-0.28,0.37-0.29c0.21-0.01,0.36-0.01,0.48,0.28
		c0.34,0.79,2.08,5.11,2.08,5.11s0.08,0.21,0.31,0.22c0.22,0.01,1.28,0,1.31,0c0.03,0,0.21-0.04,0.32-0.34l2.67-8
		c0,0,0.28-0.53-0.31-0.54c-0.58-0.01-1.43,0.01-1.43,0.01s-0.45-0.11-0.59,0.37c-0.15,0.48-1.42,4.49-1.42,4.49
		s-0.08,0.33-0.25,0.32c-0.07,0-0.18-0.06-0.26-0.29c-0.22-0.68-1.56-4.54-1.56-4.54s-0.12-0.36-0.39-0.36
		c-0.28,0-1.23,0.01-1.23,0.01s-0.23-0.05-0.4,0.3c-0.19,0.39-1.94,4.56-1.94,4.56s-0.15,0.32-0.32,0.32
		c-0.11,0-0.18-0.05-0.24-0.25C33.54,10,32.4,5.98,32.4,5.98S32.32,5.61,32,5.61C31.68,5.61,30.5,5.6,30.33,5.6"/>
	<path class="st0" d="M51.55,6.44c-0.52-0.57-1.42-1.02-2.79-1.03C44.8,5.41,45,6.07,45.07,6.19c0.07,0.12,0.24,0.57,0.27,0.64
		c0.03,0.07,0.05,0.27,0.64,0.11c0,0,1.93-0.58,3.17,0.14c0.57,0.33,0.76,0.83,0.76,1.27c0,0.53-0.31,0.97-1.05,1.01
		c-1.37,0.07-3.61-0.14-4.67,1.04c-0.49,0.55-1.37,2.46,0.46,3.76c1.53,1.09,4.45,0.64,5.38,0.52c0.76-0.09,1.19-0.08,1.55-0.04
		c0.53,0.06,0.76-0.13,0.76-0.54V8.89C52.34,8.89,52.47,7.46,51.55,6.44 M50.22,12.61c-0.01,0.93-1.28,1.28-2.65,1.17
		c-1.2-0.09-1.48-0.72-1.5-1.64c-0.02-0.93,0.57-1.36,1.1-1.5c0.73-0.19,1.88-0.06,1.88-0.06C50.42,10.71,50.23,11.63,50.22,12.61"
		/>
	<path class="st0" d="M53.98,6.1v5.84c0,0,0.03,2.18,2.33,2.65c2.3,0.46,4.38-0.72,4.38-0.72s0.15,1.3-0.22,1.8
		c-0.68,0.94-2.24,1.24-2.61,1.38c-0.29,0.11-0.66,0.28-0.46,0.58c0.2,0.3,0.48,0.61,0.53,0.67c0.08,0.1,0.25,0.17,0.58,0.1
		c0.33-0.07,2.79-0.8,3.59-1.72c0,0,1.08-0.88,1.08-3.16V6.03c0,0,0-0.42-0.35-0.42h-1.67c0,0-0.47-0.01-0.47,0.38v5.6
		c0,0.15-0.35,1.44-2.02,1.44c-1.82,0-2.2-1.18-2.2-1.44V6.18c0,0,0.05-0.56-0.38-0.56H54.4C54.4,5.61,53.98,5.59,53.98,6.1"/>
	<path class="st0" d="M56.86,17.93c-0.09-0.14-0.21-0.33-0.36-0.42c-0.22-0.12-0.53-0.04-0.65-0.02c0,0-4.44,0.99-9.22,0.87
		c-5.14-0.14-9.88-1.32-10.67-1.4c-0.13-0.01-0.21-0.05-0.25,0.04c-0.02,0.05,0.04,0.11,0.17,0.17c0.16,0.08,4.09,2.04,10.39,2.47
		c5.09,0.34,10.35-0.87,10.49-0.92c0.28-0.09,0.35-0.26,0.25-0.51C56.99,18.14,56.93,18.04,56.86,17.93"/>
	<polyline class="st1" points="68.2,0 68.2,19.69 67.33,19.69 67.33,0 	"/>
	<path class="st0" d="M126.04,14.51V7.84c0.62-1.07,1.74-1.78,3.23-1.78c2.14,0,3.23,1.16,3.23,2.9v5.55h0.91V8.96
		c0-2.25-1.36-3.73-4.13-3.73c-1.27,0-2.5,0.65-3.19,1.45h-0.04V5.44h-0.92v9.06H126.04z M121.9,9.98c0,2.25-1.61,3.92-3.88,3.92
		c-2.23,0-3.86-1.67-3.86-3.92s1.63-3.92,3.86-3.92C120.29,6.06,121.9,7.73,121.9,9.98 M122.85,9.98c0-2.72-1.99-4.75-4.82-4.75
		c-2.79,0-4.8,2.03-4.8,4.75s2.01,4.75,4.8,4.75C120.85,14.73,122.85,12.7,122.85,9.98 M106.8,6.06c1.25,0,2.36,0.65,3.05,1.69v4.5
		c-0.67,1.05-1.81,1.65-3.05,1.65c-2.03,0-3.7-1.67-3.7-3.92S104.77,6.06,106.8,6.06 M110.07,13.22c0.11,0.94,0.87,1.29,1.52,1.29
		c0.2,0,0.31-0.02,0.34-0.04c-0.05-0.27-0.11-0.54-0.16-0.82c0,0-0.11,0.02-0.18,0.02c-0.42,0-0.83-0.29-0.83-1.07V1.27h-0.91v5.26
		h-0.04c-0.76-0.82-1.78-1.31-3.01-1.31c-2.56,0-4.64,2.03-4.64,4.75s2.09,4.75,4.64,4.75c1.34,0,2.47-0.58,3.23-1.5H110.07z
		 M92.68,14.51V7.84c0.62-1.07,1.74-1.78,3.23-1.78c2.14,0,3.23,1.16,3.23,2.9v5.55h0.91V8.96c0-2.25-1.36-3.73-4.13-3.73
		c-1.27,0-2.5,0.65-3.19,1.45h-0.04V5.44h-0.92v9.06H92.68z M88.55,9.98c0,2.25-1.61,3.92-3.88,3.92c-2.23,0-3.86-1.67-3.86-3.92
		s1.63-3.92,3.86-3.92C86.93,6.06,88.55,7.73,88.55,9.98 M89.49,9.98c0-2.72-1.99-4.75-4.82-4.75c-2.79,0-4.8,2.03-4.8,4.75
		s2.01,4.75,4.8,4.75C87.49,14.73,89.49,12.7,89.49,9.98 M72.25,14.51h7.22v-0.83h-6.27V1.82h-0.94V14.51z"/>
</g>
</svg>
