<!-- Generator: Adobe Illustrator 24.3.0, SVG Export Plug-In  -->
<svg version="1.1" xmlns="http://www.w3.org/2000/svg" xmlns:xlink="http://www.w3.org/1999/xlink" x="0px" y="0px" width="86.2px"
	 height="136px" viewBox="0 0 86.2 136" style="overflow:visible;enable-background:new 0 0 86.2 136;" xml:space="preserve">
<style type="text/css">
	.st0{fill:#FFFFFF;}
</style>
<defs>
</defs>
<path class="st0" d="M79.79,114.3l6.32,5.7v-9.77h-2.05v5.35l-6.32-5.71v9.77h2.05 M70.83,118.42c0.97-0.94,1.46-2.11,1.46-3.47
	c0-1.36-0.49-2.51-1.47-3.46c-0.97-0.95-2.16-1.42-3.55-1.42s-2.58,0.47-3.56,1.42c-0.97,0.95-1.46,2.09-1.46,3.46
	c0,1.36,0.49,2.53,1.46,3.47c0.98,0.93,2.17,1.4,3.56,1.4C68.67,119.83,69.86,119.35,70.83,118.42 M70.21,114.95
	c0,0.82-0.28,1.54-0.86,2.12c-0.57,0.58-1.26,0.86-2.08,0.86s-1.52-0.28-2.09-0.85c-0.57-0.58-0.85-1.28-0.85-2.13
	c0-0.82,0.28-1.53,0.85-2.11c0.57-0.58,1.27-0.88,2.09-0.88s1.52,0.3,2.09,0.88C69.93,113.43,70.21,114.13,70.21,114.95
	 M55.32,112.12h2.51v-1.89h-7.14v1.89h2.55v7.52h2.08V112.12z M46.59,119.64l-3.71-5.24l3.6-4.17h-2.47l-3.63,4.2v-4.2H38.3v9.41
	h2.08v-2.57l1.08-1.2l2.69,3.77H46.59z M27.12,117.06c-0.57-0.57-0.85-1.27-0.85-2.12c0-0.85,0.28-1.55,0.86-2.12
	c0.58-0.57,1.28-0.85,2.12-0.85c0.96,0,1.76,0.35,2.39,1.07l1.42-1.2c-0.96-1.09-2.31-1.76-3.81-1.76c-1.42,0-2.61,0.46-3.59,1.39
	c-0.99,0.93-1.47,2.08-1.47,3.47c0,1.39,0.49,2.54,1.47,3.47c0.98,0.92,2.17,1.38,3.59,1.38c1.5,0,2.86-0.65,3.82-1.77l-1.42-1.2
	c-0.63,0.72-1.43,1.08-2.4,1.08C28.4,117.89,27.7,117.61,27.12,117.06 M12.53,119.64h6.52v-1.89h-4.44v-2.01h4.06v-1.85h-4.06v-1.77
	h4.35v-1.89h-6.43V119.64z M6.29,118.85c0.55-0.53,0.83-1.2,0.83-2c0-1.2-0.69-2.12-1.89-2.34c0.76-0.27,1.2-0.99,1.2-1.89
	c0-0.69-0.26-1.27-0.78-1.71c-0.51-0.46-1.15-0.69-1.9-0.69H0v9.41h4.25C5.07,119.64,5.75,119.38,6.29,118.85 M4.41,112.98
	c0,0.58-0.42,1-1.01,1H2.04v-1.97h1.38C4,112.01,4.41,112.43,4.41,112.98 M5.05,116.69c0,0.65-0.51,1.15-1.22,1.15H2.04v-2.26h1.78
	C4.54,115.59,5.05,116.05,5.05,116.69"/>
<path class="st0" d="M84.89,64.64c-0.15-5.98-2.21-11.6-5.57-16.33c3.79-5.35,5.74-11.75,5.57-18.45C84.47,13.67,70.15,0,53.62,0
	H1.3v33.08c0,4.48,3.63,8.11,8.11,8.11h44.21c5.71,0,11.09,2.04,15.38,5.4c0.26-0.24,0.51-0.48,0.75-0.74
	c1.26-1.29,2.34-2.71,3.22-4.23c-5.39-4.26-12.16-6.84-19.35-6.84H10.75c-1.68,0-3.05-1.36-3.05-3.05V6.41h45.91
	c13.15,0,24.54,10.81,24.86,23.61c0.17,6.61-2.27,12.85-6.88,17.57c-4.6,4.73-10.77,7.33-17.37,7.33L8.22,54.99
	c-3.82,0-6.92,3.1-6.92,6.93v34.2h52.34c8.32,0,16.42-3.11,22.3-9C81.93,81.1,85.1,73.11,84.89,64.64 M71.93,82.04
	c-4.7,5.01-11.4,7.66-18.27,7.66H7.71V65.06c0-2.06,1.67-3.74,3.74-3.74h42.79c7.77,0,15.06-2.86,20.73-8.07
	c2.13,3.44,3.41,7.39,3.52,11.55C78.65,71.25,76.32,77.36,71.93,82.04"/>
<path class="st0" d="M81.67,135.19v-4h4.17v-0.66h-4.17v-3.46h4.43v-0.65h-5.13v9.41h5.22v-0.65 M73.63,134.55
	c0.88-0.86,1.31-2,1.31-3.41c0-1.42-0.43-2.55-1.31-3.42c-0.88-0.86-2.05-1.3-3.55-1.3h-2.85v9.41h2.86
	C71.59,135.84,72.76,135.41,73.63,134.55 M74.22,131.14c0,1.23-0.36,2.21-1.09,2.96c-0.73,0.73-1.76,1.09-3.09,1.09h-2.11v-8.11
	h2.09c1.34,0,2.36,0.36,3.09,1.11C73.86,128.93,74.22,129.91,74.22,131.14 M59.89,135.84h0.7v-9.41h-0.7V135.84z M50.88,126.27
	c-0.69,0-1.27,0.22-1.73,0.64c-0.46,0.42-0.69,0.96-0.69,1.61c0,0.66,0.19,1.17,0.58,1.54c0.39,0.36,1,0.73,1.85,1.09
	c0.82,0.36,1.4,0.7,1.74,1.01c0.34,0.31,0.51,0.76,0.51,1.32c0,0.5-0.17,0.93-0.51,1.31c-0.34,0.38-0.88,0.57-1.63,0.57
	c-1.26,0-2.17-0.7-2.65-1.89l-0.61,0.28C48.3,135.22,49.49,136,51,136c1.78,0,2.85-1.01,2.85-2.52c0-0.77-0.19-1.32-0.69-1.77
	c-0.49-0.47-0.97-0.73-1.93-1.16l-0.86-0.41c-0.19-0.09-0.39-0.23-0.62-0.39c-0.43-0.34-0.58-0.73-0.58-1.27
	c0-0.92,0.73-1.57,1.71-1.57c0.83,0,1.43,0.35,1.8,1.04l0.61-0.31C52.78,126.72,51.99,126.27,50.88,126.27 M41.69,126.43l-4.94,5.39
	v-5.39h-0.7v9.41h0.7v-3.05l1.55-1.7l3.56,4.75h0.85l-3.94-5.25l3.79-4.16H41.69z M27.07,126.43h-3.01v9.41h0.7v-3.94h2.23
	c0.13,0,0.23,0,0.28-0.01l2.21,3.95h0.77l-2.28-4.06c1.12-0.37,1.85-1.39,1.85-2.63c0-0.77-0.27-1.42-0.8-1.93
	C28.5,126.68,27.84,126.43,27.07,126.43 M27.04,127.08c0.59,0,1.09,0.2,1.49,0.59c0.39,0.39,0.59,0.89,0.59,1.47
	c0,0.61-0.2,1.11-0.61,1.51c-0.39,0.39-0.9,0.59-1.51,0.59h-2.24v-4.17H27.04z M14.22,126.17l-4.06,9.66h0.72l1.08-2.57h4.54
	l1.08,2.57h0.72L14.22,126.17z M12.23,132.62l1.98-4.78l1.98,4.78H12.23z M3.1,126.43H0.38v9.41h0.7V132H3.1
	c0.82,0,1.5-0.27,2.02-0.8c0.53-0.53,0.8-1.2,0.8-2c0-0.77-0.27-1.43-0.8-1.97C4.6,126.7,3.93,126.43,3.1,126.43 M3.08,127.08
	c0.65,0,1.16,0.2,1.55,0.62c0.39,0.42,0.59,0.92,0.59,1.51s-0.2,1.11-0.59,1.53c-0.39,0.42-0.9,0.62-1.55,0.62h-2v-4.28H3.08z"/>
</svg>
